<mxfile host="app.diagrams.net" modified="2021-08-25T03:37:50.883Z" agent="5.0 (Macintosh; Intel Mac OS X 10_15_7) AppleWebKit/537.36 (KHTML, like Gecko) Chrome/92.0.4515.131 Safari/537.36" etag="cdgwgLMtrZTwELf3Dl3D" version="13.4.4" type="github">
  <diagram id="PEKc1L_drBupShQN1M54" name="Page-2">
    <mxGraphModel dx="946" dy="545" grid="1" gridSize="10" guides="1" tooltips="1" connect="1" arrows="1" fold="1" page="1" pageScale="1" pageWidth="827" pageHeight="1169" math="0" shadow="0">
      <root>
        <mxCell id="YP36jwB_scypkNZuDLBu-0" />
        <mxCell id="YP36jwB_scypkNZuDLBu-1" parent="YP36jwB_scypkNZuDLBu-0" />
        <mxCell id="YP36jwB_scypkNZuDLBu-6" value="opssla&lt;br&gt;(portal&amp;amp;facade)" style="rounded=1;whiteSpace=wrap;html=1;strokeWidth=2;fillWeight=4;hachureGap=8;hachureAngle=45;sketch=1;fillColor=none;" parent="YP36jwB_scypkNZuDLBu-1" vertex="1">
          <mxGeometry x="180" y="190" width="120" height="60" as="geometry" />
        </mxCell>
        <mxCell id="YP36jwB_scypkNZuDLBu-8" value="zdrmdata&lt;br&gt;(runtime server)" style="rounded=1;whiteSpace=wrap;html=1;strokeWidth=2;fillWeight=4;hachureGap=8;hachureAngle=45;sketch=1;fillColor=none;" parent="YP36jwB_scypkNZuDLBu-1" vertex="1">
          <mxGeometry x="420" y="190" width="120" height="60" as="geometry" />
        </mxCell>
      </root>
    </mxGraphModel>
  </diagram>
</mxfile>
